<svg width="25" height="25" viewBox="0 0 25 25" fill="none" xmlns="http://www.w3.org/2000/svg">
<g clip-path="url(#clip0_21_806)">
<path d="M6.25206 18.4854C9.49652 21.7299 14.754 21.7299 17.9984 18.4854C21.2429 15.2409 21.2429 9.98349 17.9984 6.73903C14.754 3.49457 9.49652 3.49457 6.25206 6.73903C3.0076 9.98349 3.0076 15.2409 6.25206 18.4854ZM7.00989 7.49686C9.82097 4.68578 14.4011 4.65736 17.2406 7.49686C20.0517 10.3079 20.0801 14.8881 17.2406 17.7276C14.4295 20.5386 9.84939 20.5671 7.00989 17.7276C4.19881 14.9165 4.17039 10.3364 7.00989 7.49686ZM9.49652 9.39144L14.9458 9.38907C15.1684 9.38907 15.3484 9.56905 15.3484 9.79166L15.346 15.2409C15.346 15.4636 15.166 15.6435 14.9434 15.6435H14.6166C14.394 15.6435 14.2093 15.4588 14.2164 15.2338L14.2874 11.2552L9.78071 15.7619C9.6244 15.9182 9.36864 15.9182 9.21233 15.7619L8.97551 15.5251C8.81921 15.3688 8.81921 15.1131 8.97551 14.9568L13.4822 10.45L9.50126 10.5234C9.27628 10.5258 9.09155 10.3458 9.09155 10.1232V9.7964C9.09392 9.57142 9.27391 9.39144 9.49652 9.39144Z" fill="#008948"/>
</g>
<defs>
<clipPath id="clip0_21_806">
<rect width="17.1477" height="17.1477" fill="white" transform="translate(12.1252 0.486938) rotate(45)"/>
</clipPath>
</defs>
</svg>
