<svg width="18" height="20" viewBox="0 0 18 20" fill="none" xmlns="http://www.w3.org/2000/svg">
<path d="M12.8571 12.9688V13.2812C12.8571 13.5391 12.6402 13.75 12.375 13.75H9.64286V16.4062C9.64286 16.6641 9.42589 16.875 9.16071 16.875H8.83929C8.57411 16.875 8.35714 16.6641 8.35714 16.4062V13.75H5.625C5.35982 13.75 5.14286 13.5391 5.14286 13.2812V12.9688C5.14286 12.7109 5.35982 12.5 5.625 12.5H8.35714V9.84375C8.35714 9.58594 8.57411 9.375 8.83929 9.375H9.16071C9.42589 9.375 9.64286 9.58594 9.64286 9.84375V12.5H12.375C12.6402 12.5 12.8571 12.7109 12.8571 12.9688ZM18 4.375V18.125C18 19.1602 17.1362 20 16.0714 20H1.92857C0.863839 20 0 19.1602 0 18.125V4.375C0 3.33984 0.863839 2.5 1.92857 2.5H3.85714V0.46875C3.85714 0.210938 4.07411 0 4.33929 0H4.66071C4.92589 0 5.14286 0.210938 5.14286 0.46875V2.5H12.8571V0.46875C12.8571 0.210938 13.0741 0 13.3393 0H13.6607C13.9259 0 14.1429 0.210938 14.1429 0.46875V2.5H16.0714C17.1362 2.5 18 3.33984 18 4.375ZM1.28571 4.375V6.25H16.7143V4.375C16.7143 4.03125 16.425 3.75 16.0714 3.75H1.92857C1.575 3.75 1.28571 4.03125 1.28571 4.375ZM16.7143 18.125V7.5H1.28571V18.125C1.28571 18.4688 1.575 18.75 1.92857 18.75H16.0714C16.425 18.75 16.7143 18.4688 16.7143 18.125Z" fill="#008948"/>
</svg>
