<svg width="25" height="25" viewBox="0 0 25 25" fill="none" xmlns="http://www.w3.org/2000/svg">
<path fill-rule="evenodd" clip-rule="evenodd" d="M1.85881 0.726147C1.43358 0.30092 0.744148 0.30092 0.31892 0.726147C-0.106307 1.15137 -0.106307 1.84081 0.318921 2.26603L10.7565 12.7036L0.318974 23.1412C-0.106254 23.5664 -0.106254 24.2559 0.318974 24.6811C0.744201 25.1063 1.43363 25.1063 1.85886 24.6811L12.2964 14.2435L22.6473 24.5944C23.0725 25.0196 23.7619 25.0196 24.1871 24.5944C24.6124 24.1691 24.6124 23.4797 24.1871 23.0545L13.8363 12.7036L24.1872 2.35276C24.6124 1.92753 24.6124 1.2381 24.1872 0.812877C23.762 0.38765 23.0725 0.38765 22.6473 0.812878L12.2964 11.1638L1.85881 0.726147Z" fill="black"/>
</svg>
