<svg width="152" height="21" viewBox="0 0 152 21" fill="none" xmlns="http://www.w3.org/2000/svg">
<path d="M9.497 9.98284V10.5715H0.580579V20.2007H10.8047V20.7894H0V0.176819H10.8047V0.765481H0.580579V9.98284H9.497Z" fill="white"/>
<path d="M24.863 0.176819H25.7923L13.3033 10.5715L25.8516 20.7913H24.8648L12.9546 11.0436V20.7913H12.374V0.176819H12.9546V10.1013L24.863 0.176819Z" fill="white"/>
<path d="M28.4631 0.176819V20.2026H38.6873V20.7913H27.8826V0.176819H28.4631Z" fill="white"/>
<path d="M40.75 0.176819V20.7913H40.1694V0.176819H40.75Z" fill="white"/>
<path d="M43.4507 20.7913H42.8701V0.176819H51.2635C53.6748 0.176819 55.5612 2.26817 55.5612 4.53442V7.36113C55.5965 9.7327 53.7305 11.683 51.3915 11.7187C51.3488 11.7187 51.3061 11.7187 51.2635 11.7187H43.4507V20.7894V20.7913ZM51.2635 11.132C53.2797 11.1696 54.9454 9.54087 54.9807 7.49654C54.9807 7.4514 54.9807 7.40815 54.9807 7.36301V4.5363C54.9565 2.46564 53.3057 0.791811 51.2635 0.767362H43.4507V11.132H51.2635Z" fill="white"/>
<path d="M57.2175 19.3487C58.6402 20.0559 59.9776 20.4095 63.2014 20.4095C65.5404 20.4452 67.4639 18.5532 67.4991 16.1816C67.4991 16.1384 67.4991 16.0951 67.4991 16.0519V15.2864C67.4991 13.5787 66.5123 12.2829 65.06 11.5175L59.6586 8.66068C58.2637 7.92344 57.2194 6.59942 57.2194 4.89174V4.21468C57.2194 1.94655 59.1077 0.0319834 61.519 0.0319834C62.0421 0.00189209 62.5355 0.00189209 62.9714 0.00189209C65.0915 0.00189209 66.2248 0.297163 67.3582 0.974219V1.68137C66.197 0.944127 65.1509 0.592435 62.9714 0.592435C62.5355 0.592435 62.0421 0.592435 61.519 0.622526C59.4286 0.622526 57.8018 2.27191 57.8018 4.21468V4.89174C57.8018 6.33424 58.7608 7.51344 59.9219 8.13032L65.3234 10.9871C66.9501 11.841 68.0834 13.3136 68.0834 15.2864V16.0519C68.1187 18.7488 65.9893 20.9643 63.3294 21C63.2867 21 63.2459 21 63.2032 21C60.0091 21 58.6143 20.6464 57.2194 19.9995V19.3525L57.2175 19.3487Z" fill="white"/>
<path d="M78.0422 0.176819H84.9554C88.4982 0.176819 91.288 3.2104 91.288 6.62577V14.3705C91.3213 17.8837 88.539 20.7574 85.0741 20.7913C85.0351 20.7913 84.9962 20.7913 84.9554 20.7913H78.0422V0.176819ZM78.6228 20.2026H84.9554C88.0976 20.2365 90.6721 17.6806 90.7055 14.4947C90.7055 14.4533 90.7055 14.4138 90.7055 14.3724V6.62577C90.7055 3.53389 88.1792 0.765481 84.9554 0.765481H78.6228V20.2026Z" fill="white"/>
<path d="M93.9888 0.176819V20.7913H93.4082V0.176819H93.9888Z" fill="white"/>
<path d="M103.167 10.5715V9.98281H108.568V19.849C107.233 20.7329 106.157 20.9981 103.339 20.9981H102.41C98.3144 20.9398 96.0774 18.1714 96.0774 14.5774V6.44895C96.0792 2.8568 98.3162 0 102.412 0C105.693 0 106.914 0.176787 108.249 0.942235V1.6475C106.884 0.763568 105.81 0.586781 102.412 0.586781C98.6946 0.586781 96.6617 3.1784 96.6617 6.44707V14.5755C96.6617 17.8442 98.6946 20.3474 102.412 20.4057H103.341C105.78 20.4057 106.884 20.1706 107.988 19.5218V10.5715H103.167Z" fill="white"/>
<path d="M111.182 0.176819V20.7913H110.601V0.176819H111.182Z" fill="white"/>
<path d="M126.722 0.176819V0.765481H120.215V20.7612H119.634V0.765481H112.925V0.176819H126.722Z" fill="white"/>
<path d="M131.107 0.176819H131.717L138.979 20.7913H138.369L135.957 13.9887H126.837L124.455 20.7913H123.845L131.107 0.176819ZM127.041 13.4001H135.755L131.398 1.06075L127.041 13.4001Z" fill="white"/>
<path d="M141.535 0.176819V20.2026H151.759V20.7913H140.954V0.176819H141.535Z" fill="white"/>
</svg>
