<svg width="31" height="9" viewBox="0 0 31 9" fill="none" xmlns="http://www.w3.org/2000/svg">
<path d="M0.769625 8V0.299999H1.44063L4.96063 6.306H4.60863L8.09563 0.299999H8.76663V8H7.98563V1.521H8.17263L4.96063 7.021H4.57563L1.34163 1.521H1.55063V8H0.769625ZM13.5635 8.055C12.9622 8.055 12.4342 7.93033 11.9795 7.681C11.5248 7.42433 11.1692 7.076 10.9125 6.636C10.6558 6.18867 10.5275 5.679 10.5275 5.107C10.5275 4.535 10.6485 4.029 10.8905 3.589C11.1398 3.149 11.4772 2.80433 11.9025 2.555C12.3352 2.29833 12.8192 2.17 13.3545 2.17C13.8972 2.17 14.3775 2.29467 14.7955 2.544C15.2208 2.786 15.5545 3.13067 15.7965 3.578C16.0385 4.018 16.1595 4.52767 16.1595 5.107C16.1595 5.14367 16.1558 5.184 16.1485 5.228C16.1485 5.26467 16.1485 5.305 16.1485 5.349H11.1215V4.766H15.7305L15.4225 4.997C15.4225 4.579 15.3308 4.20867 15.1475 3.886C14.9715 3.556 14.7295 3.29933 14.4215 3.116C14.1135 2.93267 13.7578 2.841 13.3545 2.841C12.9585 2.841 12.6028 2.93267 12.2875 3.116C11.9722 3.29933 11.7265 3.556 11.5505 3.886C11.3745 4.216 11.2865 4.59367 11.2865 5.019V5.14C11.2865 5.58 11.3818 5.96867 11.5725 6.306C11.7705 6.636 12.0418 6.89633 12.3865 7.087C12.7385 7.27033 13.1382 7.362 13.5855 7.362C13.9375 7.362 14.2638 7.29967 14.5645 7.175C14.8725 7.05033 15.1365 6.85967 15.3565 6.603L15.7965 7.109C15.5398 7.417 15.2172 7.65167 14.8285 7.813C14.4472 7.97433 14.0255 8.055 13.5635 8.055ZM20.6972 2.17C21.1665 2.17 21.5772 2.26167 21.9292 2.445C22.2885 2.621 22.5672 2.89233 22.7652 3.259C22.9705 3.62567 23.0732 4.08767 23.0732 4.645V8H22.2922V4.722C22.2922 4.11333 22.1382 3.655 21.8302 3.347C21.5295 3.03167 21.1042 2.874 20.5542 2.874C20.1435 2.874 19.7842 2.95833 19.4762 3.127C19.1755 3.28833 18.9408 3.52667 18.7722 3.842C18.6108 4.15 18.5302 4.524 18.5302 4.964V8H17.7492V2.225H18.4972V3.809L18.3762 3.512C18.5595 3.094 18.8528 2.76767 19.2562 2.533C19.6595 2.291 20.1398 2.17 20.6972 2.17ZM27.5698 8.055C27.0784 8.055 26.6494 7.96333 26.2828 7.78C25.9161 7.59667 25.6301 7.32167 25.4248 6.955C25.2268 6.58833 25.1278 6.13 25.1278 5.58V2.225H25.9088V5.492C25.9088 6.108 26.0591 6.57367 26.3598 6.889C26.6678 7.197 27.0968 7.351 27.6468 7.351C28.0501 7.351 28.3984 7.27033 28.6918 7.109C28.9924 6.94033 29.2198 6.69833 29.3738 6.383C29.5351 6.06767 29.6158 5.69 29.6158 5.25V2.225H30.3968V8H29.6487V6.416L29.7698 6.702C29.5864 7.12733 29.3004 7.461 28.9118 7.703C28.5304 7.93767 28.0831 8.055 27.5698 8.055Z" fill="black"/>
</svg>
