<svg width="24" height="24" viewBox="0 0 24 24" fill="none" xmlns="http://www.w3.org/2000/svg">
<path fill-rule="evenodd" clip-rule="evenodd" d="M9 2C12.859 2 16 5.14 16 9C16 12.859 12.859 16 9 16C5.14 16 2 12.859 2 9C2 5.14 5.14 2 9 2ZM9 18C11.131 18 13.089 17.251 14.633 16.008L22.291 23.706C22.68 24.097 23.312 24.099 23.705 23.708C24.097 23.319 24.098 22.686 23.709 22.294L16.041 14.588C17.264 13.052 18 11.111 18 9C18 4.037 13.963 0 9 0C4.037 0 0 4.037 0 9C0 13.962 4.037 18 9 18Z" fill="black"/>
</svg>
